#!OML:ASF H:\MichaelJackson\Top Level 1\Subject 1\Session 1\male.ASF
:FULLY-SPECIFIED
:DEGREES
165
root 20.4269 16.8626 -19.2478 9.25958 -12.997 -2.05807
lowerback -2.94612 4.35361 -3.77133
upperback -1.73342 5.89342 -0.412716
thorax -0.472484 2.97752 1.80382
lowerneck -10.0072 -6.47219 2.68139
upperneck 21.3545 -10.2178 3.13801
head 8.32327 -4.31714 -0.425669
rclavicle 8.10048e-015 -1.74931e-014
rhumerus -25.1746 45.1719 -102.58
rradius 136.675
rwrist -47.1285
rhand 8.49576 -10.1069
rfingers 7.12502
rthumb 33.6983 -36.9571
lclavicle 8.10048e-015 -1.74931e-014
lhumerus -47.5421 -33.0466 108.225
lradius 66.1123
lwrist 19.1285
lhand -3.9055 19.0547
lfingers 7.12502
lthumb 21.8447 47.8417
rfemur -22.9213 2.73173 12.7706
rtibia 31.6982
rfoot -26.141 -11.6349
rtoes 33.6047
lfemur -20.0093 3.352 -16.6602
ltibia 32.375
lfoot -23.5749 16.4158
ltoes 12.7454
166
root 20.3974 16.8611 -19.2414 9.20465 -12.7759 -1.98902
lowerback -3.01486 4.3385 -3.65496
upperback -1.76333 5.87273 -0.466759
thorax -0.446106 2.96577 1.68952
lowerneck -10.1988 -6.42316 2.72302
upperneck 21.8705 -10.1798 3.02712
head 8.52461 -4.28308 -0.483083
rclavicle -4.20181e-014 -2.42517e-014
rhumerus -25.9219 44.3967 -102.743
rradius 136.739
rwrist -47.1833
rhand 9.48875 -9.63827
rfingers 7.12502
rthumb 34.6413 -36.2773
lclavicle -4.20181e-014 -2.42517e-014
lhumerus -47.3731 -33.1409 108.023
lradius 65.9896
lwrist 19.0884
lhand -3.94638 19.0965
lfingers 7.12502
lthumb 21.8055 47.8881
rfemur -22.6178 2.85195 12.8215
rtibia 31.4563
rfoot -26.3504 -12.2187
rtoes 33.2746
lfemur -19.9264 3.36168 -16.6089
ltibia 32.3134
lfoot -23.4906 16.2732
ltoes 12.2467
167
root 20.3667 16.8602 -19.2353 9.1505 -12.5514 -1.91658
lowerback -3.07931 4.32517 -3.53786
upperback -1.79305 5.85409 -0.524807
thorax -0.421655 2.95505 1.57038
lowerneck -10.3645 -6.37434 2.73222
upperneck 22.3573 -10.1423 2.96028
head 8.71699 -4.24902 -0.519506
rclavicle 1.85118e-014 -2.10712e-014
rhumerus -26.6841 43.594 -102.898
rradius 136.79
rwrist -47.3393
rhand 10.5806 -9.12173
rfingers 7.12502
rthumb 35.6768 -35.517
lclavicle 1.85118e-014 -2.10712e-014
lhumerus -47.2025 -33.2429 107.815
lradius 65.851
lwrist 19.0393
lhand -3.94646 19.1503
lfingers 7.12502
lthumb 21.8054 47.9419
rfemur -22.3281 2.95557 12.8875
rtibia 31.2207
rfoot -26.5419 -12.7896
rtoes 33.0896
lfemur -19.8374 3.34609 -16.555
ltibia 32.2363
lfoot -23.4391 16.1313
ltoes 11.8815
168
root 20.3347 16.8596 -19.2294 9.09355 -12.3351 -1.84288
lowerback -3.13625 4.31491 -3.42025
upperback -1.82055 5.83917 -0.58545
thorax -0.3991 2.94618 1.44782
lowerneck -10.5039 -6.32316 2.71024
upperneck 22.8092 -10.1021 2.93945
head 8.8983 -4.21337 -0.533785
rclavicle -7.70291e-014 -2.78299e-015
rhumerus -27.4563 42.7602 -103.044
rradius 136.822
rwrist -47.5469
rhand 11.8237 -8.58399
rfingers 7.12502
rthumb 36.8539 -34.6861
lclavicle -7.70291e-014 -2.78299e-015
lhumerus -47.0265 -33.3434 107.595
lradius 65.6971
lwrist 18.9782
lhand -3.92291 19.1871
lfingers 7.12502
lthumb 21.828 47.9761
rfemur -22.0458 3.06279 12.9646
rtibia 30.9959
rfoot -26.7519 -13.3321
rtoes 33.0408
lfemur -19.7364 3.3002 -16.4968
ltibia 32.1475
lfoot -23.4209 16.0051
ltoes 11.6358
169
root 20.3015 16.8593 -19.224 9.04037 -12.1192 -1.76517
lowerback -3.18696 4.30266 -3.30582
upperback -1.84923 5.82131 -0.647799
thorax -0.381331 2.93595 1.3246
lowerneck -10.6157 -6.26808 2.65797
upperneck 23.2238 -10.0568 2.96214
head 9.06695 -4.17524 -0.526233
rclavicle 1.01877e-014 -3.97569e-015
rhumerus -28.2384 41.8961 -103.185
rradius 136.83
rwrist -47.7479
rhand 13.2074 -8.04763
rfingers 7.12502
rthumb 38.1618 -33.8027
lclavicle 1.01877e-014 -3.97569e-015
lhumerus -46.8489 -33.433 107.362
lradius 65.5345
lwrist 18.9058
lhand -3.88626 19.1882
lfingers 7.12502
lthumb 21.8632 47.9731
rfemur -21.7749 3.19181 13.0411
rtibia 30.7834
rfoot -26.9545 -13.8592
rtoes 33.0809
lfemur -19.6368 3.21713 -16.4365
ltibia 32.0526
lfoot -23.4333 15.8925
ltoes 11.5504
170
root 20.2673 16.8591 -19.2189 8.99069 -11.9071 -1.69206
lowerback -3.23204 4.28667 -3.1842
upperback -1.87571 5.79803 -0.709177
thorax -0.363692 2.92293 1.19796
lowerneck -10.7099 -6.20373 2.58376
upperneck 23.6055 -9.99909 3.01846
head 9.225 -4.1312 -0.500939
rclavicle -6.36608e-014 1.55052e-014
rhumerus -29.0288 41.0098 -103.323
rradius 136.804
rwrist -47.8837
rhand 14.68 -7.52976
rfingers 7.12502
rthumb 39.5504 -32.8899
lclavicle -6.36608e-014 1.55052e-014
lhumerus -46.6572 -33.4964 107.107
lradius 65.3575
lwrist 18.8169
lhand -3.85243 19.1008
lfingers 7.12502
lthumb 21.8957 47.8818
rfemur -21.5106 3.36438 13.1193
rtibia 30.5851
rfoot -27.1379 -14.3789
rtoes 33.1489
lfemur -19.5377 3.11445 -16.3665
ltibia 31.9557
lfoot -23.4544 15.7965
ltoes 11.5169
171
root 20.232 16.8587 -19.2143 8.9442 -11.698 -1.62006
lowerback -3.2698 4.26621 -3.06011
upperback -1.90142 5.7684 -0.769287
thorax -0.349115 2.90678 1.07052
lowerneck -10.787 -6.13078 2.50004
upperneck 23.9575 -9.92767 3.08854
head 9.3715 -4.08169 -0.466276
rclavicle -3.52843e-014 7.95139e-015
rhumerus -29.836 40.1062 -103.464
rradius 136.738
rwrist -47.8996
rhand 16.1596 -7.05121
rfingers 7.12502
rthumb 40.9421 -31.986
lclavicle -3.52843e-014 7.95139e-015
lhumerus -46.4565 -33.5268 106.831
lradius 65.1697
lwrist 18.7108
lhand -3.83119 18.9332
lfingers 7.12502
lthumb 21.9161 47.7119
rfemur -21.2548 3.59062 13.1898
rtibia 30.4023
rfoot -27.3598 -14.8935
rtoes 33.2617
lfemur -19.4416 2.99092 -16.2899
ltibia 31.8591
lfoot -23.4533 15.7297
ltoes 11.4466
172
root 20.1957 16.8584 -19.2102 8.90167 -11.4924 -1.55519
lowerback -3.29791 4.24053 -2.9269
upperback -1.92609 5.7312 -0.826345
thorax -0.338153 2.88682 0.940228
lowerneck -10.8549 -6.04707 2.41853
upperneck 24.287 -9.83882 3.15635
head 9.50864 -4.0253 -0.429451
rclavicle 6.61208e-014 -2.62396e-014
rhumerus -30.656 39.1965 -103.607
rradius 136.62
rwrist -47.7545
rhand 17.519 -6.64406
rfingers 7.12502
rthumb 42.2172 -31.1609
lclavicle 6.61208e-014 -2.62396e-014
lhumerus -46.2415 -33.5156 106.532
lradius 64.9675
lwrist 18.5854
lhand -3.8177 18.696
lfingers 7.12502
lthumb 21.929 47.4732
rfemur -21.0093 3.8695 13.2568
rtibia 30.2369
rfoot -27.6358 -15.3974
rtoes 33.4205
lfemur -19.3481 2.84018 -16.1993
ltibia 31.764
lfoot -23.4434 15.6895
ltoes 11.384
173
root 20.1587 16.8579 -19.2066 8.86102 -11.2894 -1.50038
lowerback -3.31438 4.20831 -2.77855
upperback -1.9471 5.68451 -0.879448
thorax -0.32876 2.862 0.804636
lowerneck -10.923 -5.95091 2.35209
upperneck 24.5983 -9.72853 3.20266
head 9.63769 -3.96087 -0.398996
rclavicle 2.26118e-015 -1.63003e-014
rhumerus -31.4878 38.2906 -103.752
rradius 136.442
rwrist -47.4281
rhand 18.6596 -6.32797
rfingers 7.12502
rthumb 43.2844 -30.4726
lclavicle 2.26118e-015 -1.63003e-014
lhumerus -46.0123 -33.4498 106.205
lradius 64.7567
lwrist 18.4348
lhand -3.80529 18.4141
lfingers 7.12502
lthumb 21.9409 47.1898
rfemur -20.7754 4.17552 13.326
rtibia 30.0919
rfoot -27.8787 -15.8872
rtoes 33.5412
lfemur -19.254 2.65711 -16.0915
ltibia 31.6691
lfoot -23.4334 15.6791
ltoes 11.3192
174
root 20.1209 16.8576 -19.2035 8.82285 -11.0877 -1.45567
lowerback -3.31849 4.16741 -2.61249
upperback -1.96402 5.62546 -0.928742
thorax -0.320655 2.83086 0.662062
lowerneck -10.9972 -5.84206 2.30333
upperneck 24.8982 -9.59525 3.21843
head 9.76143 -3.88813 -0.378639
rclavicle 5.23301e-014 1.63003e-014
rhumerus -32.3274 37.3989 -103.9
rradius 136.197
rwrist -46.9202
rhand 19.4879 -6.1344
rfingers 7.12502
rthumb 44.0577 -29.9957
lclavicle 5.23301e-014 1.63003e-014
lhumerus -45.7633 -33.3166 105.846
lradius 64.5307
lwrist 18.2564
lhand -3.77582 18.1332
lfingers 7.12502
lthumb 21.9692 46.9057
rfemur -20.5584 4.48398 13.4009
rtibia 29.9712
rfoot -28.0929 -16.3459
rtoes 33.5966
lfemur -19.16 2.44818 -15.9679
ltibia 31.5725
lfoot -23.4444 15.6816
ltoes 11.3773
175
root 20.0825 16.8576 -19.201 8.78854 -10.8808 -1.42269
lowerback -3.31025 4.11595 -2.42831
upperback -1.97785 5.55155 -0.972192
thorax -0.315137 2.79218 0.514219
lowerneck -11.0789 -5.72353 2.27603
upperneck 25.1898 -9.44154 3.19394
head 9.88051 -3.80897 -0.372794
rclavicle 8.02593e-015 2.18663e-014
rhumerus -33.1719 36.5181 -104.041
rradius 135.871
rwrist -46.238
rhand 19.974 -6.04229
rfingers 7.12502
rthumb 44.5109 -29.732
lclavicle 8.02593e-015 2.18663e-014
lhumerus -45.4971 -33.1081 105.459
lradius 64.2869
lwrist 18.0496
lhand -3.72744 17.8839
lfingers 7.12502
lthumb 22.0157 46.6509
rfemur -20.3635 4.75097 13.4897
rtibia 29.8769
rfoot -28.249 -16.7543
rtoes 33.5664
lfemur -19.0681 2.20306 -15.8262
ltibia 31.4735
lfoot -23.5112 15.6807
ltoes 11.6153
